<svg width="90" height="90" viewBox="0 0 90 90" fill="none" xmlns="http://www.w3.org/2000/svg">
<rect x="0.5" y="0.5" width="89" height="89" stroke="black"/>
<circle cx="79" cy="11" r="2" stroke="black"/>
<circle cx="37" cy="59" r="22.5" stroke="black"/>
<rect x="76" y="22.5" width="6" height="56" fill="black" stroke="black"/>
<rect x="26.5" y="12.5" width="21" height="13" stroke="black"/>
<path d="M27.9574 21.5455V16.0909H29.2188V16.5085H28.4347V21.1278H29.2188V21.5455H27.9574ZM29.7136 17.1051V16.6364H32.9863V17.1051H31.6142V21H31.0858V17.1051H29.7136ZM33.8018 21V16.6364H36.4354V17.1051H34.3303V18.5795H36.299V19.0483H34.3303V20.5312H36.4695V21H33.8018ZM37.6435 16.6364L38.7685 18.4517H38.8026L39.9276 16.6364H40.5497L39.1776 18.8182L40.5497 21H39.9276L38.8026 19.2188H38.7685L37.6435 21H37.0213L38.4276 18.8182L37.0213 16.6364H37.6435ZM40.9988 17.1051V16.6364H44.2715V17.1051H42.8993V21H42.3709V17.1051H40.9988ZM46.0245 16.0909V21.5455H44.7631V21.1278H45.5472V16.5085H44.7631V16.0909H46.0245Z" fill="black"/>
</svg>
